<svg version="1.1" xmlns="http://www.w3.org/2000/svg" xmlns:xlink="http://www.w3.org/1999/xlink" width="68.2526" height="63.81749" viewBox="0,0,68.2526,63.81749"><defs><linearGradient x1="240" y1="149.84125" x2="240" y2="210.15875" gradientUnits="userSpaceOnUse" id="color-1"><stop offset="0" stop-color="#ff6666"/><stop offset="1" stop-color="#e83636"/></linearGradient><linearGradient x1="240" y1="149.84125" x2="240" y2="210.15875" gradientUnits="userSpaceOnUse" id="color-2"><stop offset="0" stop-color="#460000"/><stop offset="1" stop-color="#800000"/></linearGradient><linearGradient x1="234.0198" y1="181.69311" x2="234.0198" y2="172.26301" gradientUnits="userSpaceOnUse" id="color-3"><stop offset="0" stop-color="#ffffff"/><stop offset="1" stop-color="#000000"/></linearGradient><linearGradient x1="245.07804" y1="181.67917" x2="245.07804" y2="172.24906" gradientUnits="userSpaceOnUse" id="color-4"><stop offset="0" stop-color="#ffffff"/><stop offset="1" stop-color="#000000"/></linearGradient></defs><g transform="translate(-205.8737,-148.09125)"><g data-paper-data="{&quot;isPaintingLayer&quot;:true}" fill-rule="nonzero" stroke-linecap="butt" stroke-linejoin="miter" stroke-miterlimit="10" stroke-dasharray="" stroke-dashoffset="0" style="mix-blend-mode: normal"><path d="M207.6237,199.74838c0,-13.71131 0,-36.72486 0,-43.02057c0,-3.19162 5.76447,-6.88656 10.70209,-6.88656c7.74391,0 31.00338,0 44.3511,0c5.77855,0 9.69941,4.0308 9.69941,7.77358c0,6.65919 0,28.81189 0,42.13355c0,6.14459 -5.69241,10.41037 -10.58643,10.41037c-7.45983,0 -29.46243,0 -43.02057,0c-6.56178,0 -11.1456,-4.02185 -11.1456,-10.41037z" fill="url(#color-1)" stroke="url(#color-2)" stroke-width="3.5"/><g><path d="M225.47101,186.81187c0,-4.54707 0,-4.66565 0,-13.20817c0,-6.74331 5.17811,-12.15152 10.03821,-12.15152c2.16117,0 7.42941,0 8.98155,0c4.60326,0 10.03821,6.00949 10.03821,13.20818c0,7.92143 0,6.71631 0,11.09486c0,5.04982 -2.48128,8.45323 -6.60085,8.45323c-0.45245,0 -0.19225,3.81147 -0.19225,3.81147l-3.31393,-0.032l-0.51735,-3.74679l-2.64619,-0.0118l0.46345,4.31848l-4.18989,-0.12687l0.27456,-4.20015l-2.11957,-0.01234l-0.3434,3.76242l-3.74825,0.01729c0,0 0.04747,-3.7797 -0.44964,-3.7797c-2.94203,0 -5.67465,-3.21042 -5.67465,-7.39658z" fill="#ffffff" stroke="#454545" stroke-width="0.5"/><path d="M234.0198,181.69311c-2.0817,0 -3.76926,-2.53133 -3.76926,-5.65388c0,-1.23392 0.94632,-3.77623 0.94632,-3.77623l5.63699,0.01464c0,0 0.9552,2.31722 0.9552,3.76159c0,3.12255 -1.68755,5.65388 -3.76925,5.65388z" data-paper-data="{&quot;index&quot;:null}" fill="url(#color-3)" stroke="#000000" stroke-width="0.1"/><path d="M245.07804,181.67917c-2.0817,0 -3.76926,-2.53133 -3.76926,-5.65388c0,-1.23392 0.94632,-3.77623 0.94632,-3.77623l5.63699,0.01464c0,0 0.9552,2.31722 0.9552,3.76159c0,3.12255 -1.68755,5.65388 -3.76925,5.65388z" data-paper-data="{&quot;index&quot;:null}" fill="url(#color-4)" stroke="#000000" stroke-width="0.1"/></g></g></g></svg>