<svg version="1.1" xmlns="http://www.w3.org/2000/svg" xmlns:xlink="http://www.w3.org/1999/xlink" width="75.20852" height="144.69903" viewBox="0,0,75.20852,144.69903"><g transform="translate(-195.32556,-127.38708)"><g data-paper-data="{&quot;isPaintingLayer&quot;:true}" fill-rule="nonzero" stroke-linejoin="miter" stroke-miterlimit="10" stroke-dasharray="" stroke-dashoffset="0" style="mix-blend-mode: normal"><path d="M253.52216,148.90927c0,11.33409 -9.1881,20.52219 -20.52219,20.52219c-11.33409,0 -20.52219,-9.1881 -20.52219,-20.52219c0,-11.33409 9.1881,-20.52219 20.52219,-20.52219c11.33409,0 20.52219,9.1881 20.52219,20.52219z" fill="none" stroke="#000000" stroke-width="2" stroke-linecap="butt"/><path d="M213.73425,231.83566l18.42809,-22.19747l-0.41882,-39.78792l-15.91517,19.68455" fill="none" stroke="#000000" stroke-width="2" stroke-linecap="round"/><path d="M231.74352,209.63819l15.49635,20.10337" fill="none" stroke="#000000" stroke-width="2" stroke-linecap="round"/><path d="M232.16234,168.59382l16.33399,21.35983" fill="none" stroke="#000000" stroke-width="2" stroke-linecap="round"/><path d="M220.44829,143.88343c0,-1.38071 1.11929,-2.5 2.5,-2.5c1.38071,0 2.5,1.11929 2.5,2.5c0,1.38071 -1.11929,2.5 -2.5,2.5c-1.38071,0 -2.5,-1.11929 -2.5,-2.5z" fill="#000000" stroke="none" stroke-width="0.5" stroke-linecap="butt"/><path d="M240.13284,143.88343c0,-1.38071 1.11929,-2.5 2.5,-2.5c1.38071,0 2.5,1.11929 2.5,2.5c0,1.38071 -1.11929,2.5 -2.5,2.5c-1.38071,0 -2.5,-1.11929 -2.5,-2.5z" fill="#000000" stroke="none" stroke-width="0.5" stroke-linecap="butt"/><path d="M221.69183,157.39468c0,0 4.00992,5.63179 9.60714,5.56515c5.59721,-0.06663 10.49623,-5.56515 10.49623,-5.56515" fill="none" stroke="#000000" stroke-width="2" stroke-linecap="round"/><text transform="translate(195.70571,262.58258) scale(0.76028,0.76028)" font-size="40" xml:space="preserve" fill="#000000" fill-rule="nonzero" stroke="none" stroke-width="1" stroke-linecap="butt" stroke-linejoin="miter" stroke-miterlimit="10" stroke-dasharray="" stroke-dashoffset="0" font-family="Sans Serif" font-weight="normal" text-anchor="start" style="mix-blend-mode: normal"><tspan x="0" dy="0">papo</tspan></text></g></g></svg>