<svg version="1.1" xmlns="http://www.w3.org/2000/svg" xmlns:xlink="http://www.w3.org/1999/xlink" width="164.06538" height="105.02691" viewBox="0,0,164.06538,105.02691"><g transform="translate(-144.18553,-167.05917)"><g data-paper-data="{&quot;isPaintingLayer&quot;:true}" fill-rule="nonzero" stroke-linejoin="miter" stroke-miterlimit="10" stroke-dasharray="" stroke-dashoffset="0" style="mix-blend-mode: normal"><path d="M196.26444,232.05113c0,10.01043 -11.65826,18.12551 -26.03945,18.12551c-14.38119,0 -26.03945,-8.11508 -26.03945,-18.12551c0,-10.01043 11.65826,-18.1255 26.03945,-18.1255c14.38119,0 26.03945,8.11507 26.03945,18.1255z" fill="#ff0000" stroke="none" stroke-width="0" stroke-linecap="butt"/><path d="M214.62011,216.57269c0,9.60017 -11.18046,17.38266 -24.97226,17.38266c-13.7918,0 -24.97226,-7.78249 -24.97226,-17.38266c0,-9.60017 11.18046,-17.38265 24.97226,-17.38265c13.7918,0 24.97226,7.78248 24.97226,17.38265z" fill="#ff0000" stroke="none" stroke-width="0" stroke-linecap="butt"/><path d="M221.99953,231.17552c0,6.31806 -7.35808,11.43987 -16.43474,11.43987c-9.07665,0 -16.43474,-5.12181 -16.43474,-11.43987c0,-6.31806 7.35808,-11.43986 16.43474,-11.43986c9.07665,0 16.43474,5.1218 16.43474,11.43986z" fill="#ff0000" stroke="none" stroke-width="0" stroke-linecap="butt"/><path d="M283.16534,223.91349c0,8.36938 -17.48739,15.15411 -39.05918,15.15411c-21.57179,0 -39.05918,-6.78472 -39.05918,-15.15411c0,-8.36938 17.48739,-15.15411 39.05918,-15.15411c21.57179,0 39.05918,6.78472 39.05918,15.15411z" fill="#ff0000" stroke="none" stroke-width="0" stroke-linecap="butt"/><path d="M170.66559,195.25118c11.29933,-0.887 21.1783,7.55387 22.0653,18.8532c0.887,11.29933 -7.55387,21.1783 -18.8532,22.0653c-11.29933,0.887 -21.1783,-7.55387 -22.0653,-18.8532c-0.887,-11.29933 7.55387,-21.1783 18.8532,-22.0653z" fill="#ffffff" stroke="#000000" stroke-width="2" stroke-linecap="butt"/><path d="M215.82835,189.53482l15.91517,-19.68455l0.41882,39.78792l-18.42809,22.19747" fill="none" stroke="#000000" stroke-width="2" stroke-linecap="round"/><path d="M231.74352,209.63819l15.49635,20.10337" fill="none" stroke="#000000" stroke-width="2" stroke-linecap="round"/><path d="M248.49633,189.95365l-16.33399,-21.35983" fill="none" stroke="#000000" stroke-width="2" stroke-linecap="round"/><path d="M184.87281,226.31983c0,0 -5.3007,-4.43836 -4.79623,-10.0132c0.50446,-5.57483 6.36951,-10.02851 6.36951,-10.02851" data-paper-data="{&quot;index&quot;:null}" fill="none" stroke="#000000" stroke-width="2" stroke-linecap="round"/><text transform="translate(195.70571,262.58258) scale(0.76028,0.76028)" font-size="40" xml:space="preserve" fill="#000000" fill-rule="nonzero" stroke="none" stroke-width="1" stroke-linecap="butt" stroke-linejoin="miter" stroke-miterlimit="10" stroke-dasharray="" stroke-dashoffset="0" font-family="Sans Serif" font-weight="normal" text-anchor="start" style="mix-blend-mode: normal"><tspan x="0" dy="0">papon't</tspan></text><text transform="translate(171.15714,211.54028) rotate(-79.19392) scale(0.5,0.5)" font-size="40" xml:space="preserve" fill="#000000" fill-rule="nonzero" stroke="none" stroke-width="1" stroke-linecap="butt" stroke-linejoin="miter" stroke-miterlimit="10" stroke-dasharray="" stroke-dashoffset="0" font-family="Sans Serif" font-weight="normal" text-anchor="start" style="mix-blend-mode: normal"><tspan x="0" dy="0">x</tspan></text><text transform="translate(168.04649,228.06594) rotate(-79.1937) scale(0.5,0.5)" font-size="40" xml:space="preserve" fill="#000000" fill-rule="nonzero" stroke="none" stroke-width="1" stroke-linecap="butt" stroke-linejoin="miter" stroke-miterlimit="10" stroke-dasharray="" stroke-dashoffset="0" font-family="Sans Serif" font-weight="normal" text-anchor="start" style="mix-blend-mode: normal"><tspan x="0" dy="0">x</tspan></text></g></g></svg>